<svg width="18" height="20" viewBox="0 0 18 20" fill="none" xmlns="http://www.w3.org/2000/svg">
<path fill-rule="evenodd" clip-rule="evenodd" d="M7.80156 0.400391C7.57877 0.40051 7.36041 0.46265 7.17093 0.579853C6.98146 0.697057 6.82835 0.864694 6.72876 1.06399L5.85996 2.80039H1.80156C1.4833 2.80039 1.17808 2.92682 0.953034 3.15186C0.727991 3.37691 0.601563 3.68213 0.601562 4.00039C0.601563 4.31865 0.727991 4.62387 0.953034 4.84892C1.17808 5.07396 1.4833 5.20039 1.80156 5.20039V17.2004C1.80156 17.8369 2.05442 18.4474 2.50451 18.8974C2.95459 19.3475 3.56504 19.6004 4.20156 19.6004H13.8016C14.4381 19.6004 15.0485 19.3475 15.4986 18.8974C15.9487 18.4474 16.2016 17.8369 16.2016 17.2004V5.20039C16.5198 5.20039 16.825 5.07396 17.0501 4.84892C17.2751 4.62387 17.4016 4.31865 17.4016 4.00039C17.4016 3.68213 17.2751 3.37691 17.0501 3.15186C16.825 2.92682 16.5198 2.80039 16.2016 2.80039H12.1432L11.2744 1.06399C11.1748 0.864694 11.0217 0.697057 10.8322 0.579853C10.6427 0.46265 10.4244 0.40051 10.2016 0.400391H7.80156ZM5.40156 7.60039C5.40156 7.28213 5.52799 6.97691 5.75303 6.75186C5.97808 6.52682 6.2833 6.40039 6.60156 6.40039C6.91982 6.40039 7.22505 6.52682 7.45009 6.75186C7.67513 6.97691 7.80156 7.28213 7.80156 7.60039V14.8004C7.80156 15.1186 7.67513 15.4239 7.45009 15.6489C7.22505 15.874 6.91982 16.0004 6.60156 16.0004C6.2833 16.0004 5.97808 15.874 5.75303 15.6489C5.52799 15.4239 5.40156 15.1186 5.40156 14.8004V7.60039ZM11.4016 6.40039C11.0833 6.40039 10.7781 6.52682 10.553 6.75186C10.328 6.97691 10.2016 7.28213 10.2016 7.60039V14.8004C10.2016 15.1186 10.328 15.4239 10.553 15.6489C10.7781 15.874 11.0833 16.0004 11.4016 16.0004C11.7198 16.0004 12.025 15.874 12.2501 15.6489C12.4751 15.4239 12.6016 15.1186 12.6016 14.8004V7.60039C12.6016 7.28213 12.4751 6.97691 12.2501 6.75186C12.025 6.52682 11.7198 6.40039 11.4016 6.40039Z" fill="#757575"/>
</svg>
