<svg width="16" height="16" viewBox="0 0 16 16" fill="none" xmlns="http://www.w3.org/2000/svg">
<path d="M1.60205 4.70642L7.99965 7.90482L14.3973 4.70642C14.3736 4.29877 14.1949 3.91561 13.8979 3.6354C13.6009 3.35519 13.208 3.19914 12.7997 3.19922H3.19965C2.79132 3.19914 2.39841 3.35519 2.10139 3.6354C1.80438 3.91561 1.62573 4.29877 1.60205 4.70642Z" fill="#010101"/>
<path d="M14.4001 6.49414L8.0001 9.69414L1.6001 6.49414V11.1997C1.6001 11.6241 1.76867 12.0311 2.06873 12.3311C2.36878 12.6312 2.77575 12.7997 3.2001 12.7997H12.8001C13.2244 12.7997 13.6314 12.6312 13.9315 12.3311C14.2315 12.0311 14.4001 11.6241 14.4001 11.1997V6.49414Z" fill="#010101"/>
</svg>
