<svg width="8" height="14" viewBox="0 0 8 14" fill="none" xmlns="http://www.w3.org/2000/svg">
<path fill-rule="evenodd" clip-rule="evenodd" d="M1.6 0.599609C1.17565 0.599609 0.768687 0.76818 0.468629 1.06824C0.168571 1.3683 0 1.77526 0 2.19961V11.7996C0 12.224 0.168571 12.6309 0.468629 12.931C0.768687 13.231 1.17565 13.3996 1.6 13.3996H6.4C6.82435 13.3996 7.23131 13.231 7.53137 12.931C7.83143 12.6309 8 12.224 8 11.7996V2.19961C8 1.77526 7.83143 1.3683 7.53137 1.06824C7.23131 0.76818 6.82435 0.599609 6.4 0.599609H1.6ZM4 11.7996C4.21217 11.7996 4.41566 11.7153 4.56569 11.5653C4.71571 11.4153 4.8 11.2118 4.8 10.9996C4.8 10.7874 4.71571 10.584 4.56569 10.4339C4.41566 10.2839 4.21217 10.1996 4 10.1996C3.78783 10.1996 3.58434 10.2839 3.43431 10.4339C3.28429 10.584 3.2 10.7874 3.2 10.9996C3.2 11.2118 3.28429 11.4153 3.43431 11.5653C3.58434 11.7153 3.78783 11.7996 4 11.7996Z" fill="#010101"/>
</svg>
