<svg width="6" height="10" viewBox="0 0 6 10" fill="none" xmlns="http://www.w3.org/2000/svg">
<path fill-rule="evenodd" clip-rule="evenodd" d="M5.70679 0.292787C5.89426 0.480314 5.99957 0.734622 5.99957 0.999786C5.99957 1.26495 5.89426 1.51926 5.70679 1.70679L2.41379 4.99979L5.70679 8.29279C5.88894 8.48139 5.98974 8.73399 5.98746 8.99619C5.98518 9.25838 5.88001 9.5092 5.6946 9.6946C5.5092 9.88001 5.25838 9.98518 4.99619 9.98746C4.73399 9.98974 4.48139 9.88894 4.29279 9.70679L0.292787 5.70679C0.105316 5.51926 0 5.26495 0 4.99979C0 4.73462 0.105316 4.48031 0.292787 4.29279L4.29279 0.292787C4.48031 0.105316 4.73462 0 4.99979 0C5.26495 0 5.51926 0.105316 5.70679 0.292787Z" fill="white"/>
</svg>
