<svg width="24" height="24" viewBox="0 0 24 24" fill="none" xmlns="http://www.w3.org/2000/svg">
<path fill-rule="evenodd" clip-rule="evenodd" d="M24 12C24 15.1826 22.7357 18.2348 20.4853 20.4853C18.2348 22.7357 15.1826 24 12 24C8.8174 24 5.76516 22.7357 3.51472 20.4853C1.26428 18.2348 0 15.1826 0 12C0 8.8174 1.26428 5.76516 3.51472 3.51472C5.76516 1.26428 8.8174 0 12 0C15.1826 0 18.2348 1.26428 20.4853 3.51472C22.7357 5.76516 24 8.8174 24 12ZM15 7.5C15 8.29565 14.6839 9.05871 14.1213 9.62132C13.5587 10.1839 12.7956 10.5 12 10.5C11.2044 10.5 10.4413 10.1839 9.87868 9.62132C9.31607 9.05871 9 8.29565 9 7.5C9 6.70435 9.31607 5.94129 9.87868 5.37868C10.4413 4.81607 11.2044 4.5 12 4.5C12.7956 4.5 13.5587 4.81607 14.1213 5.37868C14.6839 5.94129 15 6.70435 15 7.5ZM12 13.5C10.5639 13.4997 9.15791 13.9117 7.94912 14.6871C6.74033 15.4625 5.77957 16.5686 5.181 17.874C6.02502 18.8559 7.07141 19.6436 8.24842 20.1832C9.42543 20.7228 10.7052 21.0014 12 21C13.2948 21.0014 14.5746 20.7228 15.7516 20.1832C16.9286 19.6436 17.975 18.8559 18.819 17.874C18.2204 16.5686 17.2597 15.4625 16.0509 14.6871C14.8421 13.9117 13.4361 13.4997 12 13.5Z" fill="#FF6B0A"/>
</svg>
