<svg width="16" height="16" viewBox="0 0 16 16" fill="none" xmlns="http://www.w3.org/2000/svg">
  <path fill-rule="evenodd" clip-rule="evenodd"
    d="M1.15115 1.1515C1.37618 0.926537 1.68135 0.800158 1.99955 0.800158C2.31775 0.800158 2.62291 0.926537 2.84795 1.1515L7.99955 6.3031L13.1511 1.1515C13.2618 1.03689 13.3943 0.945471 13.5407 0.88258C13.6871 0.81969 13.8445 0.786586 14.0039 0.785202C14.1632 0.783817 14.3212 0.814179 14.4687 0.874516C14.6162 0.934853 14.7502 1.02396 14.8628 1.13663C14.9755 1.2493 15.0646 1.38328 15.1249 1.53076C15.1853 1.67823 15.2156 1.83625 15.2142 1.99558C15.2129 2.15492 15.1798 2.31238 15.1169 2.45879C15.054 2.60519 14.9626 2.73761 14.8479 2.8483L9.69635 7.9999L14.8479 13.1515C15.0665 13.3778 15.1875 13.6809 15.1848 13.9956C15.182 14.3102 15.0558 14.6112 14.8333 14.8337C14.6108 15.0562 14.3099 15.1824 13.9952 15.1851C13.6806 15.1878 13.3775 15.0669 13.1511 14.8483L7.99955 9.6967L2.84795 14.8483C2.62163 15.0669 2.3185 15.1878 2.00387 15.1851C1.68923 15.1824 1.38826 15.0562 1.16577 14.8337C0.943276 14.6112 0.817073 14.3102 0.814339 13.9956C0.811605 13.6809 0.932559 13.3778 1.15115 13.1515L6.30275 7.9999L1.15115 2.8483C0.926183 2.62327 0.799805 2.3181 0.799805 1.9999C0.799805 1.6817 0.926183 1.37654 1.15115 1.1515Z"
    fill="#757575" />
</svg>
