<svg width="20" height="20" viewBox="0 0 20 20" fill="none" xmlns="http://www.w3.org/2000/svg">
<path d="M10.4728 0.495505C10.3234 0.431461 10.1625 0.398438 9.99996 0.398438C9.83741 0.398438 9.67656 0.431461 9.52716 0.495505L1.12716 4.0955C0.910692 4.18772 0.72611 4.34154 0.596371 4.53783C0.466632 4.73412 0.397461 4.96421 0.397461 5.1995C0.397461 5.4348 0.466632 5.66489 0.596371 5.86118C0.72611 6.05747 0.910692 6.21129 1.12716 6.3035L4.29996 7.6607C4.41773 7.5275 4.56365 7.42215 4.72716 7.3523L9.52716 5.29551C9.67241 5.23077 9.82908 5.19554 9.98806 5.19188C10.147 5.18823 10.3052 5.2162 10.4532 5.27419C10.6013 5.33218 10.7364 5.41902 10.8506 5.52967C10.9648 5.64031 11.0559 5.77256 11.1186 5.91872C11.1812 6.06488 11.2142 6.22203 11.2156 6.38105C11.217 6.54007 11.1868 6.69778 11.1267 6.84502C11.0666 6.99225 10.9779 7.12607 10.8656 7.2387C10.7533 7.35134 10.6198 7.44053 10.4728 7.50111L7.20036 8.9051L9.52836 9.9023C9.67759 9.96618 9.83823 9.99912 10.0006 9.99912C10.1629 9.99912 10.3235 9.96618 10.4728 9.9023L18.8728 6.3023C19.0885 6.20974 19.2724 6.05593 19.4016 5.85991C19.5308 5.66389 19.5996 5.43428 19.5996 5.1995C19.5996 4.96473 19.5308 4.73512 19.4016 4.5391C19.2724 4.34308 19.0885 4.18926 18.8728 4.0967L10.4728 0.496705V0.495505Z" fill="#FF6B0A"/>
<path d="M1.97178 9.27464L3.99978 10.1422V15.0646C3.58428 14.9702 3.16354 14.9004 2.73978 14.8558C2.46635 14.8271 2.21108 14.7053 2.01667 14.5109C1.82227 14.3165 1.70051 14.0613 1.67178 13.7878C1.51396 12.2769 1.61542 10.7502 1.97178 9.27344V9.27464Z" fill="#FF6B0A"/>
<path d="M9.1599 17.8885C8.34872 17.0926 7.41733 16.4293 6.3999 15.9229V11.1745L8.5815 12.1105C9.0297 12.3027 9.51226 12.4017 9.9999 12.4017C10.4875 12.4017 10.9701 12.3027 11.4183 12.1105L18.0279 9.27734C18.3864 10.7538 18.4878 12.2809 18.3279 13.7917C18.2992 14.0652 18.1774 14.3204 17.983 14.5148C17.7886 14.7093 17.5333 14.831 17.2599 14.8597C14.8389 15.1142 12.5757 16.1819 10.8399 17.8885C10.6156 18.1084 10.314 18.2316 9.9999 18.2316C9.6858 18.2316 9.38422 18.1084 9.1599 17.8885Z" fill="#FF6B0A"/>
<path d="M5.2 19.5988C5.51826 19.5988 5.82348 19.4724 6.04853 19.2473C6.27357 19.0223 6.4 18.7171 6.4 18.3988V15.9208C5.6368 15.5416 4.83111 15.2548 4 15.0664V18.3988C4 18.7171 4.12643 19.0223 4.35147 19.2473C4.57652 19.4724 4.88174 19.5988 5.2 19.5988Z" fill="#FF6B0A"/>
</svg>
