<svg width="12" height="15" viewBox="0 0 12 15" fill="none" xmlns="http://www.w3.org/2000/svg">
<path fill-rule="evenodd" clip-rule="evenodd" d="M2.03982 2.2399C3.09008 1.18964 4.51453 0.599609 5.99982 0.599609C7.48511 0.599609 8.90956 1.18964 9.95982 2.2399C11.0101 3.29015 11.6001 4.71461 11.6001 6.1999C11.6001 7.68518 11.0101 9.10964 9.95982 10.1599L5.99982 14.1199L2.03982 10.1599C1.51975 9.63988 1.10721 9.02252 0.825743 8.34305C0.544281 7.66359 0.399414 6.93535 0.399414 6.1999C0.399414 5.46444 0.544281 4.7362 0.825743 4.05674C1.10721 3.37728 1.51975 2.75991 2.03982 2.2399ZM5.99982 7.79989C6.42416 7.79989 6.83113 7.63132 7.13119 7.33127C7.43125 7.03121 7.59982 6.62424 7.59982 6.1999C7.59982 5.77555 7.43125 5.36858 7.13119 5.06852C6.83113 4.76847 6.42416 4.5999 5.99982 4.5999C5.57547 4.5999 5.16851 4.76847 4.86845 5.06852C4.56839 5.36858 4.39982 5.77555 4.39982 6.1999C4.39982 6.62424 4.56839 7.03121 4.86845 7.33127C5.16851 7.63132 5.57547 7.79989 5.99982 7.79989Z" fill="#010101"/>
</svg>
